<svg width="23" height="24" viewBox="0 0 23 24" fill="currentColor" xmlns="http://www.w3.org/2000/svg">
  <mask id="mask0_111_44" style="mask-type:luminance" maskUnits="userSpaceOnUse" x="0" y="0" width="23" height="24">
    <rect y="0.383301" width="22.7667" height="22.7667" fill="currentColor"/>
  </mask>
  <g mask="url(#mask0_111_44)" fill="currentColor"> 
    <path d="M9.7259 5.96526L9.98999 9.89247L10.1211 11.8663C10.1225 12.0693 10.1543 12.271 10.2157 12.4648C10.374 12.841 10.755 13.0801 11.1694 13.0634L17.4845 12.6503C17.758 12.6458 18.0221 12.7481 18.2186 12.9347C18.3825 13.0901 18.4882 13.2935 18.5216 13.5123L18.5328 13.6451C18.2715 17.2637 15.6137 20.282 12.0026 21.0611C8.39135 21.8402 4.68826 20.1944 2.90378 17.0171C2.38933 16.094 2.068 15.0795 1.95865 14.0329C1.91298 13.7231 1.89287 13.4101 1.89851 13.0971C1.89287 9.21746 4.65564 5.86339 8.52299 5.05481C8.98846 4.98232 9.44476 5.22874 9.63142 5.65334C9.6797 5.75168 9.71158 5.85699 9.7259 5.96526Z"/>
    <path opacity="0.4" d="M20.8696 9.69134L20.8629 9.72226L20.8438 9.76721L20.8464 9.89065C20.8365 10.0541 20.7734 10.2114 20.6647 10.3385C20.5513 10.4708 20.3965 10.5609 20.226 10.5959L20.1221 10.6102L12.836 11.0823C12.5936 11.1062 12.3523 11.028 12.1721 10.8673C12.0219 10.7333 11.9259 10.5525 11.8987 10.3577L11.4097 3.08215C11.4012 3.05755 11.4012 3.03089 11.4097 3.00628C11.4164 2.80573 11.5047 2.61617 11.6548 2.47994C11.8049 2.34371 12.0045 2.27217 12.2087 2.28129C16.5343 2.39134 20.1698 5.5018 20.8696 9.69134Z"/>
  </g>
</svg>
